<svg width="24" height="28" viewBox="0 0 24 28" fill="none" xmlns="http://www.w3.org/2000/svg">
<path d="M10.3507 22.5108L5.57907 27.3175C4.6679 28.2287 3.1909 28.2287 2.27974 27.3175L0.994071 26.0318C0.0805711 25.1183 0.0829045 23.6367 0.999905 22.7267L5.77857 17.9387L10.3507 22.5108ZM10.3962 10.3308L10.4056 10.3227C9.61574 9.667 8.6299 8.57617 7.55307 7.49817C6.77957 6.72467 6.61157 5.08317 7.35707 4.2175C8.74657 2.83267 10.1337 2.33333 12.0016 2.33333C13.8694 2.33333 15.3872 2.835 16.7779 4.21867C17.5234 5.08433 17.2294 6.75267 16.6251 7.36517C15.4362 8.56683 14.5017 9.681 13.7119 10.3355L18.1347 14.7303L18.9386 13.9265C20.5404 12.3247 21.3092 10.2247 21.3361 8.16667C21.3617 6.13317 20.5007 4.1545 18.8511 2.64017C17.8781 1.74883 15.6801 0 12.0004 0C8.33707 0.00933333 6.07607 1.75233 5.10774 2.64017C3.45807 4.1545 2.59707 6.132 2.62274 8.16667C2.6484 10.2247 3.41724 12.3235 5.02024 13.9265L5.82407 14.7303L18.4754 27.3198C19.3772 28.2193 20.8344 28.2287 21.7491 27.3408L22.9694 26.1555C23.9051 25.2467 23.9132 23.7463 22.9881 22.827L10.3974 10.332L10.3962 10.3308Z" fill="white"/>
</svg>
