<svg width="23" height="23" viewBox="0 0 23 23" fill="none" xmlns="http://www.w3.org/2000/svg">
<g clip-path="url(#clip0_1_3186)">
<path d="M0.958333 23C0.704167 23 0.460412 22.899 0.280689 22.7193C0.100967 22.5396 0 22.2958 0 22.0417V3.83333C0 2.81667 0.403868 1.84165 1.12276 1.12276C1.84165 0.403868 2.81667 0 3.83333 0L10.5417 0C11.5583 0 12.5334 0.403868 13.2522 1.12276C13.9711 1.84165 14.375 2.81667 14.375 3.83333V8.625C14.375 9.64166 13.9711 10.6167 13.2522 11.3356C12.5334 12.0545 11.5583 12.4583 10.5417 12.4583H1.91667V22.0417C1.91667 22.2958 1.8157 22.5396 1.63598 22.7193C1.45625 22.899 1.2125 23 0.958333 23ZM19.1667 3.83333H16.2917V8.625C16.2901 10.1495 15.6839 11.6112 14.6058 12.6892C13.5278 13.7672 12.0662 14.3735 10.5417 14.375H10.1162C10.45 14.9558 10.9307 15.4386 11.51 15.775C12.0892 16.1114 12.7468 16.2895 13.4167 16.2917H19.1667C20.1833 16.2917 21.1584 15.8878 21.8772 15.1689C22.5961 14.45 23 13.475 23 12.4583V7.66667C23 6.65 22.5961 5.67498 21.8772 4.95609C21.1584 4.2372 20.1833 3.83333 19.1667 3.83333Z" fill="white"/>
</g>
<defs>
<clipPath id="clip0_1_3186">
<rect width="23" height="23" fill="white"/>
</clipPath>
</defs>
</svg>
