<svg width="24" height="24" viewBox="0 0 24 24" fill="none" xmlns="http://www.w3.org/2000/svg">
<path d="M2 2.5C2 1.119 3.119 0 4.5 0C5.881 0 7 1.119 7 2.5C7 3.881 5.881 5 4.5 5C3.119 5 2 3.881 2 2.5ZM15 15C13.346 15 12 16.346 12 18V23C12 23.553 12.447 24 13 24C13.553 24 14 23.553 14 23V22H16V23C16 23.553 16.447 24 17 24C17.553 24 18 23.553 18 23V18C18 16.346 16.654 15 15 15ZM21 10C22.381 10 23.5 8.881 23.5 7.5C23.5 6.119 22.381 5 21 5C19.619 5 18.5 6.119 18.5 7.5C18.5 8.881 19.619 10 21 10ZM21 11C20.448 11 19.937 11.16 19.492 11.422C19.492 12.731 19.087 13.597 18.429 14.38C19.391 15.292 20 16.573 20 18H22V19C22 19.553 22.447 20 23 20C23.553 20 24 19.553 24 19V14C24 12.346 22.654 11 21 11ZM15 14C16.381 14 17.5 12.881 17.5 11.5C17.5 10.119 16.381 9 15 9C13.619 9 12.5 10.119 12.5 11.5C12.5 12.881 13.619 14 15 14ZM14.751 0.377C14.195 0.128 13.6 0 13 0C12.447 0 12 0.447 12 1V6H4C1.794 6 0 7.794 0 10V14C0 15.474 0.81 16.75 2 17.444V23C2 23.553 2.447 24 3 24C3.553 24 4 23.553 4 23V18H6V23C6 23.553 6.447 24 7 24C7.553 24 8 23.553 8 23V8H13C13.553 8 14 7.553 14 7V5.25L17.565 3.365C18.146 2.966 18.146 2.036 17.565 1.636L14.751 0.377Z" fill="white"/>
</svg>
