<svg width="26" height="26" viewBox="0 0 26 26" fill="none" xmlns="http://www.w3.org/2000/svg">
<g clip-path="url(#clip0_1_3214)">
<path d="M18.9589 8.66667C21.352 8.66667 23.2922 10.6069 23.2922 13C23.2922 15.3931 21.352 17.3333 18.9589 17.3333C16.5658 17.3333 14.6256 15.3931 14.6256 13C14.6256 10.6069 16.5658 8.66667 18.9589 8.66667ZM13.0006 8.66667C15.3936 8.66667 17.3339 6.72642 17.3339 4.33333C17.3339 1.94025 15.3936 0 13.0006 0C10.6075 0 8.66723 1.94025 8.66723 4.33333C8.66723 6.72642 10.6075 8.66667 13.0006 8.66667ZM7.04223 17.3333C9.43531 17.3333 11.3756 15.3931 11.3756 13C11.3756 10.6069 9.43531 8.66667 7.04223 8.66667C4.64914 8.66667 2.70889 10.6069 2.70889 13C2.70889 15.3931 4.64914 17.3333 7.04223 17.3333ZM25.9507 23.9753C25.1209 20.7025 22.1352 18.4167 18.6881 18.4167C16.4326 18.4167 14.3872 19.4079 13.0006 21.0037C11.615 19.409 9.56964 18.4167 7.31306 18.4167C3.86698 18.4167 0.880228 20.7025 0.0503948 23.9753C-0.170605 24.8452 0.355895 25.7292 1.22581 25.9502C2.09681 26.1723 2.98081 25.6447 3.20073 24.7747C3.44231 23.8214 4.02189 23.0241 4.79323 22.4738L6.32723 24.4389C6.83748 25.077 7.80814 25.077 8.31948 24.4389L9.86648 22.4954C10.6216 23.0457 11.1871 23.8355 11.4254 24.7758C11.4286 24.7899 11.7211 26.0022 13.0016 26.0022C14.2821 26.0022 14.5725 24.791 14.5757 24.7758C14.8173 23.8225 15.3969 23.0263 16.1682 22.4748L17.7022 24.44C18.2125 25.0781 19.1831 25.0781 19.6945 24.44L21.2415 22.4965C21.9976 23.0468 22.5621 23.8366 22.8004 24.7769C23.0203 25.6468 23.9097 26.1733 24.7742 25.9523C25.6452 25.7313 26.1706 24.8473 25.9507 23.9774V23.9753Z" fill="white"/>
</g>
<defs>
<clipPath id="clip0_1_3214">
<rect width="26" height="26" fill="white"/>
</clipPath>
</defs>
</svg>
