<svg width="25" height="25" viewBox="0 0 25 25" fill="none" xmlns="http://www.w3.org/2000/svg">
<path d="M12.5235 12.5C9.07663 12.5 6.2735 9.69687 6.2735 6.25C6.2735 2.80312 9.07767 0 12.5235 0C15.9693 0 18.7735 2.80312 18.7735 6.25C18.7735 9.69687 15.9704 12.5 12.5235 12.5ZM14.585 18.9417V14.5833H9.35475V19.0385C9.97455 19.399 10.3964 20.0635 10.3964 20.8333C10.3964 21.9844 9.46413 22.9167 8.31309 22.9167C7.16204 22.9167 6.22975 21.9844 6.22975 20.8333C6.22975 20.0646 6.65163 19.4 7.27142 19.0385V14.5854C4.40996 14.5979 2.08496 16.9271 2.08496 19.7917V25H12.5016V21.875C12.5016 20.5187 13.3756 19.3729 14.585 18.9417ZM17.71 14.5833H16.6683V18.9417C17.8777 19.3729 18.7516 20.5187 18.7516 21.875V25H22.9183V19.7917C22.9183 16.9198 20.5818 14.5833 17.71 14.5833ZM15.6266 20.8333C15.0516 20.8333 14.585 21.3 14.585 21.875V25H16.6683V21.875C16.6683 21.3 16.2016 20.8333 15.6266 20.8333Z" fill="white"/>
</svg>
